<svg width="324" height="430" viewBox="0 0 324 430" fill="none" xmlns="http://www.w3.org/2000/svg">
<path d="M137.188 79.9909L138.132 103.347C148.87 102.893 159.592 104.566 169.682 108.268C179.773 111.97 189.032 117.63 196.928 124.921C204.834 132.202 211.224 140.973 215.73 150.731C220.236 160.488 222.77 171.04 223.186 181.78L246.542 180.832C246.007 167.024 242.749 153.457 236.956 140.912C231.163 128.366 222.948 117.089 212.783 107.728C202.63 98.3533 190.726 91.0772 177.753 86.3173C164.78 81.5574 150.995 79.4074 137.188 79.9909ZM135.295 33.2849L136.24 56.639C153.115 55.9252 169.964 58.5523 185.82 64.3695C201.676 70.1866 216.227 79.0791 228.636 90.5363C241.059 101.978 251.1 115.761 258.18 131.095C265.261 146.428 269.242 163.009 269.896 179.886L293.25 178.94C292.478 158.995 287.772 139.399 279.405 121.278C271.037 103.157 259.171 86.8671 244.489 73.345C229.824 59.8049 212.628 49.2956 193.889 42.4209C175.15 35.5461 155.237 32.4413 135.295 33.2849Z" fill="#63DA9D"/>
<g clip-path="url(#clip0_261_24)">
<rect x="67" y="199" width="136" height="200" fill="#3CD184"/>
<path d="M159.147 399.112H111.457C110.738 399.112 110.048 398.826 109.539 398.317C109.03 397.808 108.744 397.118 108.744 396.399V321.212C108.744 320.492 109.03 319.802 109.539 319.293C110.048 318.784 110.738 318.498 111.457 318.498H159.147C159.866 318.498 160.556 318.784 161.065 319.293C161.574 319.802 161.86 320.492 161.86 321.212V396.399C161.86 397.118 161.574 397.808 161.065 398.317C160.556 398.826 159.866 399.112 159.147 399.112Z" fill="#F1F6F9"/>
<path d="M63.1626 430H4.19449C3.08204 430 2.01516 429.558 1.22854 428.771C0.441918 427.985 0 426.918 0 425.806V261.492C0 246.052 12.516 233.536 27.955 233.536H63.1626C64.275 233.536 65.3419 233.978 66.1286 234.765C66.9152 235.552 67.3571 236.619 67.3571 237.731V425.805C67.3572 426.356 67.2487 426.901 67.038 427.41C66.8272 427.919 66.5182 428.382 66.1287 428.771C65.7392 429.161 65.2768 429.47 64.7679 429.681C64.2589 429.891 63.7135 430 63.1626 430ZM206.809 430H265.834C266.939 430 267.999 429.561 268.78 428.78C269.561 427.999 270 426.939 270 425.834V265.132C270 249.159 257.051 236.209 241.077 236.209H206.809C205.704 236.209 204.644 236.648 203.863 237.429C203.082 238.211 202.643 239.27 202.643 240.375V425.834C202.643 426.939 203.082 427.999 203.863 428.78C204.644 429.561 205.704 430 206.809 430Z" fill="#63DA9D"/>
<path d="M222.971 430H47.6323C46.9127 430 46.2226 429.714 45.7138 429.205C45.205 428.697 44.9191 428.006 44.9191 427.287V401.854C44.9191 401.135 45.205 400.444 45.7138 399.936C46.2226 399.427 46.9127 399.141 47.6323 399.141H222.971C223.691 399.141 224.381 399.427 224.889 399.936C225.398 400.444 225.684 401.135 225.684 401.854V427.287C225.684 428.006 225.398 428.697 224.889 429.205C224.381 429.714 223.691 430 222.971 430ZM15.6363 280.797H51.7208V316.962H15.6363V280.797ZM15.6363 341.23H51.7208V377.395H15.6363V341.23ZM218.279 283.47H254.364V319.635H218.279V283.47ZM218.279 343.902H254.364V380.067H218.279V343.902Z" fill="#666667"/>
<ellipse cx="135" cy="197.5" rx="68" ry="68.5" fill="#3CD184"/>
<path d="M135.302 238.881C152.545 238.881 166.524 224.871 166.524 207.59C166.524 190.308 152.545 176.298 135.302 176.298C118.058 176.298 104.08 190.308 104.08 207.59C104.08 224.871 118.058 238.881 135.302 238.881Z" fill="#F1F6F9"/>
</g>
<defs>
<clipPath id="clip0_261_24">
<rect width="270" height="301" fill="white" transform="translate(0 129)"/>
</clipPath>
</defs>
</svg>
