<svg width="385" height="385" viewBox="0 0 385 385" fill="none" xmlns="http://www.w3.org/2000/svg">
<g clip-path="url(#clip0_268_2)">
<path d="M17.2708 140.377H368.352V360.443H17.2708V140.377Z" fill="#11C495"/>
<path d="M332.794 176.159H353.738V212.472H332.794V176.159Z" fill="#666667"/>
<path d="M332.795 212.471V176.16H353.74L332.795 212.471Z" fill="#666667"/>
<path d="M332.794 233.008H353.738V269.321H332.794V233.008Z" fill="#666667"/>
<path d="M332.795 269.312V232.999H353.74L332.795 269.312Z" fill="#666667"/>
<path d="M332.794 289.833H353.738V326.146H332.794V289.833Z" fill="#666667"/>
<path d="M332.795 326.151V289.839H353.74L332.795 326.151Z" fill="#666667"/>
<path d="M298.297 176.159H319.242V212.472H298.297V176.159Z" fill="#666667"/>
<path d="M298.311 212.471V176.16H319.257L298.311 212.471Z" fill="#666667"/>
<path d="M298.297 233.008H319.242V269.321H298.297V233.008Z" fill="#666667"/>
<path d="M298.311 269.312V232.999H319.257L298.311 269.312Z" fill="#666667"/>
<path d="M298.297 289.833H319.242V326.146H298.297V289.833Z" fill="#666667"/>
<path d="M298.311 326.151V289.839H319.257L298.311 326.151Z" fill="#666667"/>
<path d="M263.841 176.159H284.785V212.472H263.841V176.159Z" fill="#666667"/>
<path d="M263.827 212.471V176.16H284.773L263.827 212.471Z" fill="#666667"/>
<path d="M263.841 233.008H284.785V269.321H263.841V233.008Z" fill="#666667"/>
<path d="M263.827 269.312V232.999H284.773L263.827 269.312Z" fill="#666667"/>
<path d="M263.841 289.833H284.785V326.146H263.841V289.833Z" fill="#666667"/>
<path d="M263.827 326.151V289.839H284.773L263.827 326.151Z" fill="#666667"/>
<path d="M315.128 74.5534H70.5028L17.2718 140.365H368.359L315.128 74.5534Z" fill="#666667"/>
<path d="M257.202 63.2786C257.202 63.2786 241.756 36.6333 213.952 52.852C205.917 57.5388 208.16 46.0348 195.416 56.0084V9.98803C195.416 9.98803 196.548 27.017 223.606 14.2363C231.313 10.5962 242.914 6.51311 257.202 12.3052C257.202 12.3052 269.945 30.8403 257.202 63.2786Z" fill="#11C495"/>
<path d="M187.587 9.98892H196.854V95.7169H187.587V9.98892Z" fill="#DC8744"/>
<path d="M247.056 120.431V360.417H137.385V113.48L192.221 79.2672L247.056 113.48V120.431Z" fill="#15F5BA"/>
<path d="M191.715 179.3C212.384 179.3 229.14 162.544 229.14 141.875C229.14 121.205 212.384 104.449 191.715 104.449C171.045 104.449 154.289 121.205 154.289 141.875C154.289 162.544 171.045 179.3 191.715 179.3Z" fill="white"/>
<path d="M191.715 181.801C169.697 181.801 151.786 163.89 151.786 141.874C151.786 119.857 169.697 101.946 191.715 101.946C213.73 101.946 231.641 119.857 231.641 141.874C231.641 163.89 213.73 181.801 191.715 181.801ZM191.715 106.947C172.455 106.947 156.788 122.615 156.788 141.874C156.788 161.132 172.455 176.8 191.715 176.8C210.972 176.8 226.64 161.132 226.64 141.874C226.64 122.615 210.972 106.947 191.715 106.947Z" fill="#666667"/>
<path d="M186.905 110.432H189.518V117.627H188.366V111.513H186.906V110.432H186.905ZM194.346 113.242C194.551 112.961 194.655 112.676 194.655 112.388C194.655 112.099 194.544 111.854 194.325 111.651C194.107 111.448 193.829 111.347 193.493 111.347C192.902 111.347 192.411 111.65 192.021 112.253L191.043 111.687C191.358 111.214 191.706 110.856 192.088 110.616C192.468 110.376 192.959 110.255 193.56 110.255C194.16 110.255 194.687 110.446 195.139 110.827C195.591 111.207 195.818 111.727 195.818 112.386C195.818 112.756 195.722 113.11 195.531 113.446C195.337 113.782 194.985 114.215 194.47 114.743L192.783 116.462H196.046V117.624H191.125V116.594L193.307 114.403C193.793 113.911 194.14 113.523 194.346 113.242ZM162.667 144.478C163.305 144.478 163.774 144.261 164.077 143.83C164.379 143.398 164.533 142.814 164.54 142.08C164.369 142.272 164.122 142.452 163.799 142.621C163.468 142.791 163.101 142.878 162.729 142.873C162.083 142.873 161.543 142.659 161.108 142.23C160.673 141.801 160.455 141.232 160.455 140.522C160.455 139.813 160.69 139.241 161.159 138.808C161.63 138.376 162.221 138.16 162.936 138.16C164.089 138.16 164.884 138.675 165.324 139.703C165.57 140.294 165.694 140.959 165.694 141.7C165.694 142.441 165.614 143.058 165.457 143.553C165.3 144.047 165.083 144.437 164.809 144.726C164.559 144.998 164.254 145.213 163.914 145.359C163.575 145.504 163.208 145.576 162.839 145.57C162.071 145.574 161.325 145.316 160.724 144.839L161.331 143.944C161.488 144.081 161.7 144.204 161.964 144.314C162.227 144.423 162.462 144.478 162.667 144.478ZM162.889 141.802C163.304 141.802 163.651 141.688 163.929 141.457C164.207 141.227 164.346 140.929 164.346 140.562C164.348 140.385 164.313 140.209 164.244 140.046C164.175 139.883 164.073 139.737 163.944 139.615C163.676 139.351 163.341 139.219 162.94 139.219C162.538 139.219 162.208 139.337 161.947 139.574C161.686 139.812 161.555 140.115 161.555 140.485C161.555 140.856 161.673 141.168 161.91 141.422C162.147 141.677 162.473 141.802 162.889 141.802ZM192.195 167.591C191.557 167.591 191.086 167.808 190.785 168.24C190.483 168.672 190.329 169.255 190.323 169.99C190.494 169.797 190.742 169.618 191.063 169.449C191.386 169.281 191.742 169.197 192.133 169.197C192.778 169.197 193.319 169.411 193.754 169.84C194.191 170.269 194.407 170.839 194.407 171.548C194.407 172.258 194.172 172.829 193.702 173.263C193.231 173.694 192.64 173.91 191.927 173.91C190.775 173.91 189.977 173.396 189.54 172.367C189.294 171.777 189.17 171.111 189.17 170.37C189.17 169.63 189.248 169.012 189.405 168.518C189.564 168.023 189.78 167.633 190.055 167.345C190.305 167.073 190.61 166.857 190.95 166.712C191.29 166.566 191.656 166.494 192.026 166.501C192.805 166.501 193.509 166.744 194.141 167.231L193.533 168.126C193.343 167.97 193.129 167.845 192.9 167.756C192.635 167.646 192.4 167.591 192.195 167.591ZM191.973 170.268C191.558 170.268 191.211 170.382 190.933 170.612C190.799 170.719 190.692 170.856 190.619 171.011C190.547 171.166 190.512 171.336 190.516 171.507C190.516 171.875 190.651 172.191 190.919 172.455C191.185 172.719 191.521 172.851 191.927 172.851C192.331 172.851 192.668 172.733 192.934 172.496C193.202 172.259 193.336 171.957 193.336 171.59C193.336 171.223 193.212 170.91 192.966 170.653C192.72 170.396 192.388 170.268 191.973 170.268ZM218.242 141.041V139.96H222.452V140.907L220.712 142.853C221.372 142.873 221.886 143.081 222.256 143.475C222.626 143.87 222.812 144.341 222.812 144.89C222.812 145.625 222.562 146.201 222.066 146.619C221.568 147.038 220.927 147.247 220.146 147.247C219.363 147.247 218.597 146.996 217.85 146.495L218.364 145.518C218.954 145.93 219.573 146.135 220.218 146.135C220.636 146.135 220.98 146.038 221.251 145.842C221.522 145.646 221.658 145.365 221.658 144.998C221.658 144.631 221.506 144.338 221.204 144.118C220.902 143.898 220.484 143.788 219.949 143.788C219.687 143.788 219.427 143.826 219.176 143.901V142.975L220.844 141.041H218.242ZM191.976 124.014H193.512V143.457H191.976V124.014ZM177.058 142.649H191.206V144.315H177.058V142.649Z" fill="#2F4859"/>
<path d="M209.189 161.023L208.464 161.661L186.495 136.675L187.22 136.037L209.189 161.023Z" fill="#E56353"/>
<path d="M192.693 145.959C194.075 145.959 195.195 144.839 195.195 143.457C195.195 142.075 194.075 140.955 192.693 140.955C191.311 140.955 190.19 142.075 190.19 143.457C190.19 144.839 191.311 145.959 192.693 145.959Z" fill="#666667"/>
<path d="M0 360.404H385V375.592H0V360.404Z" fill="#666667"/>
<path d="M169.311 289.988H215.126V360.431H169.311V289.988Z" fill="white"/>
<path d="M102.472 176.159H123.416V212.472H102.472V176.159Z" fill="#666667"/>
<path d="M102.472 212.471V176.16H123.418L102.472 212.471Z" fill="#666667"/>
<path d="M102.472 233.008H123.416V269.321H102.472V233.008Z" fill="#666667"/>
<path d="M102.472 269.312V232.999H123.418L102.472 269.312Z" fill="#666667"/>
<path d="M102.472 289.833H123.416V326.146H102.472V289.833Z" fill="#666667"/>
<path d="M102.472 326.151V289.839H123.418L102.472 326.151Z" fill="#666667"/>
<path d="M67.987 176.159H88.9313V212.472H67.987V176.159Z" fill="#666667"/>
<path d="M67.9888 212.471V176.16H88.934L67.9888 212.471Z" fill="#666667"/>
<path d="M67.987 233.008H88.9313V269.321H67.987V233.008Z" fill="#666667"/>
<path d="M67.9888 269.312V232.999H88.934L67.9888 269.312Z" fill="#666667"/>
<path d="M67.987 289.833H88.9313V326.146H67.987V289.833Z" fill="#666667"/>
<path d="M67.9888 326.151V289.839H88.934L67.9888 326.151Z" fill="#666667"/>
<path d="M33.5067 176.159H54.451V212.472H33.5067V176.159Z" fill="#666667"/>
<path d="M33.5049 212.471V176.16H54.4501L33.5049 212.471Z" fill="#666667"/>
<path d="M33.5067 233.008H54.451V269.321H33.5067V233.008Z" fill="#666667"/>
<path d="M33.5049 269.312V232.999H54.4501L33.5049 269.312Z" fill="#666667"/>
<path d="M33.5067 289.833H54.451V326.146H33.5067V289.833Z" fill="#666667"/>
<path d="M33.5049 326.151V289.839H54.4501L33.5049 326.151Z" fill="#666667"/>
<path d="M151.767 206.174H183.168V233.516H151.767V206.174Z" fill="#666667"/>
<path d="M151.786 233.514V206.17H183.185L151.786 233.514Z" fill="#666667"/>
<path d="M199.43 206.174H230.83V233.516H199.43V206.174Z" fill="#666667"/>
<path d="M199.429 233.514V206.17H230.827L199.429 233.514Z" fill="#666667"/>
<path d="M152.452 244.557H183.852V271.9H152.452V244.557Z" fill="#666667"/>
<path d="M152.454 271.894V244.549H183.852L152.454 271.894Z" fill="#666667"/>
<path d="M200.095 244.557H231.496V271.9H200.095V244.557Z" fill="#666667"/>
<path d="M200.096 271.894V244.549H231.495L200.096 271.894Z" fill="#666667"/>
</g>
<defs>
<clipPath id="clip0_268_2">
<rect width="385" height="385" fill="white"/>
</clipPath>
</defs>
</svg>
