<svg width="512" height="512" viewBox="0 0 512 512" fill="none" xmlns="http://www.w3.org/2000/svg">
<path d="M302.906 256.42L502.272 57.0507C515.245 44.0823 515.245 23.1137 502.272 10.1469C489.304 -2.8215 468.335 -2.8215 455.368 10.1469L255.998 209.514L56.6347 10.1469C43.6602 -2.8215 22.6993 -2.8215 9.73094 10.1469C-3.24365 23.1152 -3.24365 44.0823 9.73094 57.0507L209.092 256.42L9.73249 455.787C-3.24209 468.756 -3.24209 489.724 9.73249 502.691C12.8086 505.776 16.4641 508.223 20.4887 509.891C24.5133 511.558 28.8279 512.415 33.1844 512.41C41.6745 512.41 50.1677 509.16 56.6363 502.691L255.998 303.324L455.368 502.691C458.445 505.776 462.1 508.222 466.125 509.89C470.149 511.558 474.464 512.414 478.82 512.41C487.31 512.41 495.804 509.16 502.272 502.691C515.245 489.723 515.245 468.756 502.272 455.787L302.906 256.42Z" fill="white"/>
</svg>
