<svg width="480" height="384" viewBox="0 0 480 384" fill="none" xmlns="http://www.w3.org/2000/svg">
<path d="M448 64H32C23.5131 64 15.3737 60.6286 9.37258 54.6274C3.37142 48.6263 0 40.4869 0 32C0 23.5131 3.37142 15.3737 9.37258 9.37258C15.3737 3.37142 23.5131 0 32 0H448C456.487 0 464.626 3.37142 470.627 9.37258C476.629 15.3737 480 23.5131 480 32C480 40.4869 476.629 48.6263 470.627 54.6274C464.626 60.6286 456.487 64 448 64ZM448 384H32C23.5131 384 15.3737 380.629 9.37258 374.627C3.37142 368.626 0 360.487 0 352C0 343.513 3.37142 335.374 9.37258 329.373C15.3737 323.371 23.5131 320 32 320H448C456.487 320 464.626 323.371 470.627 329.373C476.629 335.374 480 343.513 480 352C480 360.487 476.629 368.626 470.627 374.627C464.626 380.629 456.487 384 448 384ZM448 224H32C23.5131 224 15.3737 220.629 9.37258 214.627C3.37142 208.626 0 200.487 0 192C0 183.513 3.37142 175.374 9.37258 169.373C15.3737 163.371 23.5131 160 32 160H448C456.487 160 464.626 163.371 470.627 169.373C476.629 175.374 480 183.513 480 192C480 200.487 476.629 208.626 470.627 214.627C464.626 220.629 456.487 224 448 224Z" fill="white"/>
</svg>
