<svg width="500" height="500" viewBox="0 0 500 500" fill="none" xmlns="http://www.w3.org/2000/svg">
<path d="M393.072 76.163H101.286V212.681H393.072V76.163Z" fill="#E6E6E6"/>
<path d="M397.468 76.163H103.34V212.681H397.468V76.163Z" fill="#F0F0F0"/>
<path d="M393.072 212.681H101.286V219.645H393.072V212.681Z" fill="#E6E6E6"/>
<path d="M404.791 212.681H110.663V219.645H404.791V212.681Z" fill="#F0F0F0"/>
<path d="M391.314 206.527V82.3174L109.494 82.3174V206.527L391.314 206.527Z" fill="#FAFAFA"/>
<path d="M139.733 206.528L156.861 82.318H183.589L166.46 206.528H139.733Z" fill="white"/>
<path d="M112.343 200.402C112.1 200.402 111.903 200.205 111.903 199.962V86.321C111.903 86.078 112.1 85.881 112.343 85.881C112.586 85.881 112.783 86.078 112.783 86.321V199.963C112.783 200.205 112.586 200.402 112.343 200.402Z" fill="#F0F0F0"/>
<path d="M172.202 206.528L189.33 82.318H199.75L182.622 206.528H172.202Z" fill="white"/>
<path d="M391.314 206.527V82.3173H390.533V206.527H391.314Z" fill="#E6E6E6"/>
<path opacity="0.6" d="M398.923 91.596H107.137L106.571 84.709H398.357L398.923 91.596Z" fill="#EBEBEB"/>
<path opacity="0.6" d="M398.923 102.891H107.137L106.571 96.004H398.357L398.923 102.891Z" fill="#EBEBEB"/>
<path opacity="0.6" d="M398.923 114.186H107.137L106.571 107.299H398.357L398.923 114.186Z" fill="#EBEBEB"/>
<path opacity="0.6" d="M398.923 125.481H107.137L106.571 118.594H398.357L398.923 125.481Z" fill="#EBEBEB"/>
<path opacity="0.6" d="M398.923 136.776H107.137L106.571 129.889H398.357L398.923 136.776Z" fill="#EBEBEB"/>
<path opacity="0.6" d="M398.923 148.071H107.137L106.571 141.184H398.357L398.923 148.071Z" fill="#EBEBEB"/>
<path d="M439 247H394.47V382.399H439V247Z" fill="#E6E6E6"/>
<path d="M427.109 382.399H439V363.708H414.642L427.109 382.399Z" fill="#FAFAFA"/>
<path d="M317.586 247H273.056V382.399H317.586V247Z" fill="#E6E6E6"/>
<path d="M439 247H307.209V375.966H439V247Z" fill="#FAFAFA"/>
<path d="M319.099 382.399H307.209V363.708H331.567L319.099 382.399Z" fill="#FAFAFA"/>
<path d="M429.776 295.057H316.433V327.331H429.776V295.057Z" fill="#F0F0F0"/>
<path d="M429.776 334.229H316.433V366.503H429.776V334.229Z" fill="#F0F0F0"/>
<path d="M407.292 298.508H338.917C336.335 298.508 334.243 296.415 334.243 293.834V292.262H411.967V293.834C411.966 296.415 409.873 298.508 407.292 298.508Z" fill="#FAFAFA"/>
<path d="M429.776 255.884H316.433V288.158H429.776V255.884Z" fill="#F0F0F0"/>
<path d="M407.292 259.335H338.917C336.335 259.335 334.243 257.242 334.243 254.661V253.089H411.967V254.661C411.966 257.242 409.873 259.335 407.292 259.335Z" fill="#FAFAFA"/>
<path d="M407.292 337.68H338.917C336.335 337.68 334.243 335.587 334.243 333.006V331.434H411.967V333.006C411.966 335.587 409.873 337.68 407.292 337.68Z" fill="#FAFAFA"/>
<path d="M53.417 275.867C55.898 268.745 75.46 278.43 83.398 290.233C88.685 298.093 91.915 306.483 93.423 317.754C93.242 304.894 93.037 291.077 92.836 278.038C91.231 274.787 87.565 267.291 84.928 261.351C76.13 241.533 55.21 234.153 47.983 221.64C38.513 205.245 38.568 180.651 46.629 171.776C53.635 164.064 76.834 216.212 79.447 222.038C88.435 242.077 91.048 256.949 92.732 271.356C92.54 259.109 92.357 247.865 92.206 239.189C91.715 210.891 91.101 201.789 90.82 198.988C89.851 197.62 88.708 196.026 88.043 195.171C82.429 187.943 69.972 179.339 63.747 168.832C54.657 153.491 56.126 135.13 62.502 128.293C69.168 121.144 80.953 138.04 87.21 154.781C93.467 171.522 90.793 187.545 92.548 201.448C92.915 204.175 93.292 214.532 93.646 228.899C95.544 213.441 99.325 203.085 106.332 193.435C114.95 181.566 122.39 167.112 129.491 168.98C136.592 170.848 132.77 189.973 127.152 203.399C122.149 215.356 97.469 227.282 93.832 236.895C94.26 256.369 94.643 281.04 94.914 304.01C96.86 292.145 95.522 291.149 103.495 272.984C108.235 262.185 127.668 248.867 129.986 256.287C132.26 263.569 128.781 277.73 121.445 287.552C115.527 295.475 102.396 295.466 99.357 300.382C98.648 301.529 96.304 305.926 94.965 308.454C95.282 336.497 95.424 361.251 95.267 369.691L93.993 369.776C94.054 367.597 93.9 353.331 93.65 334.453C90.462 324.408 68.996 318.544 62.365 308.098C55.428 297.167 50.441 284.41 53.417 275.867Z" fill="#E6E6E6"/>
<path d="M73.601 382.398H114.801C117.052 382.398 118.992 380.812 119.439 378.606L122.364 364.187H66.038L68.963 378.606C69.41 380.813 71.35 382.398 73.601 382.398Z" fill="#F0F0F0"/>
<path d="M64.86 369.777H123.542C124.948 369.777 126.13 368.721 126.287 367.323L127.487 356.663C127.671 355.025 126.39 353.591 124.742 353.591H63.66C62.012 353.591 60.73 355.025 60.915 356.663L62.115 367.323C62.272 368.721 63.454 369.777 64.86 369.777Z" fill="#F0F0F0"/>
<path d="M177.84 317.619H142.633V382.399H177.84V317.619Z" fill="#E0E0E0"/>
<path d="M267.579 382.398H149.685L137.301 294.501H255.195L267.579 382.398Z" fill="#E6E6E6"/>
<path d="M284.778 382.398H154.37L141.986 294.501H272.394L284.778 382.398Z" fill="#F0F0F0"/>
<path d="M167.135 368.658L156.703 308.241H259.629L270.061 368.658H167.135Z" fill="white"/>
<path d="M211.36 368.658L176.375 308.241H187.351L222.336 368.658H211.36Z" fill="#FAFAFA"/>
<path d="M226.988 368.658L192.003 308.241H210.719L245.704 368.658H226.988Z" fill="#FAFAFA"/>
<path d="M250 427.561C357.082 427.561 443.889 422.492 443.889 416.238C443.889 409.984 357.082 404.915 250 404.915C142.918 404.915 56.111 409.984 56.111 416.238C56.111 422.492 142.918 427.561 250 427.561Z" fill="#F5F5F5"/>
<path d="M77.266 221.53C77.046 221.53 76.861 221.362 76.842 221.139L74.62 194.437C74.6 194.203 74.774 193.998 75.009 193.978C75.229 193.961 75.448 194.132 75.468 194.367L77.69 221.069C77.71 221.303 77.536 221.508 77.301 221.528C77.289 221.529 77.278 221.53 77.266 221.53Z" fill="#05BFDB"/>
<path d="M78.585 237.39C78.365 237.39 78.18 237.222 78.161 236.999L77.488 228.916C77.468 228.682 77.642 228.477 77.877 228.457C78.102 228.428 78.317 228.61 78.336 228.846L79.009 236.929C79.029 237.163 78.855 237.368 78.62 237.388C78.609 237.389 78.597 237.39 78.585 237.39Z" fill="#05BFDB"/>
<path d="M303.555 313.371H97.081C91.813 313.371 87.144 309.061 86.705 303.792L75.077 164.019C74.639 158.751 78.59 154.44 83.859 154.44H290.333C295.601 154.44 300.27 158.75 300.709 164.019L312.338 303.792C312.776 309.06 308.824 313.371 303.555 313.371Z" fill="white"/>
<path d="M303.555 313.77H97.081C91.597 313.77 86.764 309.309 86.308 303.826L74.68 164.053C74.457 161.386 75.298 158.871 77.045 156.972C78.784 155.082 81.204 154.041 83.859 154.041H290.334C295.817 154.041 300.65 158.503 301.106 163.986L312.735 303.758C312.958 306.425 312.117 308.939 310.37 310.837C308.63 312.728 306.21 313.77 303.555 313.77ZM83.859 154.84C81.43 154.84 79.219 155.789 77.633 157.513C76.038 159.245 75.272 161.544 75.475 163.987L87.103 303.759C87.526 308.839 92.002 312.971 97.082 312.971H303.556C305.986 312.971 308.197 312.022 309.784 310.298C311.378 308.565 312.144 306.267 311.941 303.825L300.312 164.053C299.889 158.973 295.414 154.84 290.335 154.84H83.859Z" fill="#05BFDB"/>
<path d="M290.333 154.441H83.859C78.591 154.441 74.639 158.751 75.077 164.02H300.708C300.27 158.751 295.601 154.441 290.333 154.441Z" fill="#05BFDB"/>
<path d="M88.692 159.23C88.787 160.371 87.939 161.296 86.798 161.296C85.657 161.296 84.655 160.371 84.56 159.23C84.465 158.089 85.313 157.164 86.454 157.164C87.595 157.164 88.597 158.089 88.692 159.23Z" fill="white"/>
<path d="M97.092 159.23C97.187 160.371 96.339 161.296 95.198 161.296C94.057 161.296 93.056 160.371 92.961 159.23C92.866 158.089 93.714 157.164 94.855 157.164C95.996 157.164 96.997 158.089 97.092 159.23Z" fill="white"/>
<path d="M105.492 159.23C105.587 160.371 104.739 161.296 103.598 161.296C102.457 161.296 101.455 160.371 101.361 159.23C101.266 158.089 102.114 157.164 103.255 157.164C104.396 157.164 105.397 158.089 105.492 159.23Z" fill="white"/>
<path d="M285.637 295.054H111.952C107.764 295.054 104.053 291.628 103.704 287.44L95.593 189.951C95.245 185.763 98.386 182.337 102.574 182.337H276.258C280.446 182.337 284.157 185.763 284.506 189.951L292.617 287.44C292.966 291.628 289.825 295.054 285.637 295.054Z" fill="#F0F0F0"/>
<path opacity="0.1" d="M231.923 199.407L178.115 264.19C170.734 273.077 175.41 286.624 186.701 289.066L273.974 307.941C286.026 310.548 296.097 298.631 291.517 287.182L258.052 203.524C253.719 192.691 239.378 190.432 231.923 199.407Z" fill="#263238"/>
<path opacity="0.1" d="M112.161 208.49L93.42 258.956C90.919 265.69 96.334 272.718 103.483 272.017L158.212 266.65C165.886 265.897 169.672 256.938 164.863 250.91L128.876 205.81C124.158 199.899 114.794 201.4 112.161 208.49Z" fill="#263238"/>
<path d="M250.484 183.096L200.183 256.133C193.331 266.082 199.401 279.758 211.375 281.351L303.84 293.657C316.674 295.365 326.217 282.057 320.482 270.449L278.318 185.106C272.848 174.034 257.49 172.924 250.484 183.096Z" fill="#05BFDB"/>
<path d="M213.57 274.804C210.207 274.357 207.284 272.236 205.751 269.133C204.218 266.029 204.394 262.591 206.223 259.934L256.651 186.713C258.48 184.058 261.58 182.739 264.942 183.186C268.305 183.634 271.228 185.754 272.761 188.857L315.031 274.415C316.565 277.519 316.388 280.957 314.558 283.614C312.729 286.269 309.629 287.588 306.267 287.141L213.57 274.804Z" fill="white"/>
<path d="M260.648 209.069L266.537 209.853C270.324 210.357 273.239 213.802 273.046 217.547L272.651 225.229C272.637 225.511 272.604 225.79 272.555 226.064L268.365 249.214C267.761 252.55 264.713 254.708 261.255 254.248C257.789 253.787 255 250.841 254.754 247.383L253.055 223.459C253.035 223.182 253.033 222.905 253.047 222.63L253.442 214.939C253.635 211.193 256.861 208.565 260.648 209.069ZM260.178 260.629L261.784 260.843C265.172 261.294 267.778 264.375 267.606 267.725C267.434 271.075 264.548 273.425 261.16 272.975L259.554 272.761C256.166 272.31 253.56 269.229 253.732 265.879C253.905 262.529 256.791 260.178 260.178 260.629Z" fill="#05BFDB"/>
<path d="M131.505 194.26L117.694 246.634C115.865 253.569 121.918 260.029 128.957 258.655L182.529 248.202C190.057 246.733 192.999 237.534 187.721 231.969L147.961 190.048C142.719 184.522 133.447 186.895 131.505 194.26Z" fill="#05BFDB"/>
<path d="M128.855 254.413C126.907 254.793 124.88 254.11 123.435 252.586C121.989 251.061 121.425 249.014 121.928 247.109L135.774 194.603C136.276 192.699 137.739 191.335 139.688 190.955C141.636 190.575 143.663 191.258 145.108 192.782L184.969 234.809C186.415 236.334 186.979 238.381 186.476 240.286C185.974 242.19 184.511 243.554 182.563 243.934L128.855 254.413Z" fill="white"/>
<path d="M142.285 206.93L145.697 206.264C147.891 205.836 150.168 207.297 150.781 209.526L152.04 214.099C152.086 214.267 152.122 214.436 152.147 214.606L154.278 228.962C154.585 231.031 153.312 232.876 151.309 233.267C149.301 233.659 147.19 232.466 146.389 230.489L140.847 216.804C140.783 216.645 140.728 216.484 140.683 216.32L139.423 211.741C138.81 209.513 140.091 207.358 142.285 206.93ZM151.94 237.212L152.871 237.03C154.834 236.647 156.87 237.954 157.419 239.948C157.968 241.943 156.822 243.87 154.859 244.253L153.929 244.435C151.966 244.818 149.93 243.511 149.381 241.517C148.831 239.522 149.977 237.595 151.94 237.212Z" fill="#05BFDB"/>
<path d="M388.363 206.035L380.602 208.556L386.845 215.943C386.845 215.943 389.785 213.439 391.389 210.631C392.059 209.458 391.672 207.965 390.506 207.285L388.363 206.035Z" fill="#7F3E3B"/>
<path d="M377.03 214.618L381.684 220.271L386.845 215.943L380.602 208.556L377.03 214.618Z" fill="#7F3E3B"/>
<path d="M390.866 145.678C392.763 150.876 394.502 156.075 396.149 161.348C397.775 166.633 399.325 171.909 400.646 177.454L401.119 179.58L401.339 180.691L401.448 181.246L401.475 181.386L401.506 181.598L401.565 182.023C401.844 184.287 401.607 186.067 401.294 187.717C400.641 190.984 399.58 193.755 398.412 196.445C396.035 201.787 393.185 206.588 389.849 211.242L384.663 208.374C386.5 203.391 388.314 198.259 389.674 193.316C390.328 190.854 390.89 188.37 391.057 186.221C391.132 185.17 391.08 184.187 390.936 183.743L390.506 182.179L389.949 180.333C388.38 175.325 386.59 170.177 384.819 165.062C383.058 159.938 381.281 154.775 379.576 149.641L390.866 145.678Z" fill="#7F3E3B"/>
<path d="M347.677 114.743C347.809 115.366 347.589 115.954 347.186 116.056C346.782 116.158 346.348 115.735 346.216 115.112C346.084 114.489 346.304 113.901 346.708 113.799C347.112 113.697 347.545 114.119 347.677 114.743Z" fill="#263238"/>
<path d="M347.646 115.939C347.646 115.939 347.004 119.889 345.827 122.014C347.137 122.767 348.894 121.828 348.894 121.828L347.646 115.939Z" fill="#630F0F"/>
<path d="M346.027 110.959C345.909 110.959 345.793 110.903 345.72 110.8C345.602 110.631 345.643 110.398 345.812 110.279C345.873 110.237 347.315 109.25 349.198 110.025C349.389 110.104 349.48 110.322 349.402 110.513C349.323 110.704 349.105 110.796 348.914 110.716C347.405 110.094 346.253 110.884 346.242 110.892C346.176 110.937 346.101 110.959 346.027 110.959Z" fill="#263238"/>
<path d="M369.112 116.724C369.809 123.983 368.78 131.012 370.405 137.323C370.405 137.323 368.6 143.18 357.871 143.18C346.073 143.18 352.459 137.323 352.459 137.323C358.958 135.785 358.976 131.008 358.027 126.521L369.112 116.724Z" fill="#7F3E3B"/>
<path d="M372.691 139.334C373.608 137.48 374.217 134.855 372.316 134.19C370.225 133.459 359.06 133.216 355.008 134.588C350.956 135.961 351.945 139.721 351.945 139.721L372.691 139.334Z" fill="#263238"/>
<path d="M396.799 402.693C397.575 402.509 398.374 402.15 398.924 401.872C398.997 401.835 399.041 401.757 399.035 401.675C399.029 401.593 398.975 401.522 398.897 401.496C398.546 401.377 395.445 400.354 394.63 401.051C394.504 401.159 394.365 401.358 394.422 401.694C394.499 402.145 394.721 402.466 395.082 402.647C395.537 402.876 396.16 402.844 396.799 402.693ZM398.281 401.729C396.924 402.352 395.815 402.559 395.265 402.282C395.024 402.161 394.88 401.945 394.825 401.625C394.798 401.468 394.849 401.402 394.895 401.362C395.319 401 397.031 401.353 398.281 401.729Z" fill="#05BFDB"/>
<path d="M398.879 401.889C398.917 401.88 398.952 401.86 398.98 401.831C399.032 401.777 399.05 401.699 399.027 401.628C398.995 401.527 398.221 399.153 397.058 398.587C396.755 398.44 396.45 398.421 396.151 398.532C395.69 398.703 395.634 399.025 395.642 399.203C395.686 400.181 397.8 401.622 398.78 401.888C398.812 401.896 398.846 401.896 398.879 401.889ZM396.38 398.887C396.544 398.848 396.707 398.87 396.878 398.953C397.624 399.316 398.226 400.664 398.491 401.348C397.473 400.897 396.075 399.761 396.049 399.183C396.047 399.13 396.041 399.007 396.292 398.914C396.321 398.903 396.351 398.894 396.38 398.887Z" fill="#05BFDB"/>
<path d="M342.175 408.795C342.973 408.795 343.833 408.63 344.432 408.485C344.512 408.466 344.573 408.4 344.586 408.319C344.599 408.238 344.562 408.157 344.493 408.113C344.179 407.916 341.397 406.208 340.443 406.698C340.295 406.774 340.114 406.936 340.093 407.276C340.064 407.733 340.206 408.096 340.515 408.356C340.905 408.683 341.519 408.795 342.175 408.795ZM343.84 408.198C342.376 408.492 341.25 408.438 340.778 408.042C340.571 407.868 340.48 407.626 340.501 407.301C340.511 407.142 340.575 407.089 340.63 407.061C341.125 406.807 342.709 407.544 343.84 408.198Z" fill="#05BFDB"/>
<path d="M344.384 408.491C344.423 408.491 344.462 408.48 344.495 408.458C344.558 408.417 344.593 408.345 344.587 408.271C344.579 408.165 344.373 405.677 343.371 404.858C343.11 404.645 342.817 404.556 342.501 404.595C342.013 404.655 341.884 404.956 341.851 405.13C341.669 406.091 343.394 407.981 344.286 408.465C344.317 408.483 344.351 408.491 344.384 408.491ZM342.643 404.995C342.811 404.995 342.965 405.054 343.112 405.174C343.754 405.699 344.03 407.149 344.13 407.876C343.243 407.202 342.144 405.775 342.251 405.207C342.261 405.155 342.284 405.034 342.549 405.001C342.582 404.997 342.613 404.995 342.643 404.995Z" fill="#05BFDB"/>
<path d="M353.667 408.179H345.774L345.694 389.9H353.587L353.667 408.179Z" fill="#7F3E3B"/>
<path d="M408.663 401.416L401.064 402.809L395.613 384.822L403.212 383.429L408.663 401.416Z" fill="#7F3E3B"/>
<path d="M399.618 400.787L408.247 398.746C408.561 398.672 408.876 398.828 409.005 399.121L411.873 405.652C412.17 406.33 411.746 407.137 411.019 407.296C407.996 407.956 406.497 408.124 402.703 409.021C400.368 409.573 395.606 410.955 392.382 411.718C389.229 412.464 388.106 409.363 389.369 408.759C395.031 406.053 396.907 403.724 398.465 401.557C398.745 401.167 399.159 400.895 399.618 400.787Z" fill="#263238"/>
<path d="M345.862 407.265H354.482C354.805 407.265 355.075 407.489 355.133 407.804L356.421 414.82C356.554 415.547 355.976 416.237 355.231 416.224C352.124 416.171 347.638 415.989 343.729 415.989C339.159 415.989 337.531 416.238 332.172 416.238C328.932 416.238 328.159 412.962 329.527 412.665C335.754 411.314 338.473 411.169 343.936 407.879C344.53 407.522 345.18 407.265 345.862 407.265Z" fill="#263238"/>
<path d="M388 139.361C395.366 144.545 397.585 157.906 397.585 157.906L380.889 166.371C380.889 166.371 376.649 158.153 374.792 149.801C373.034 141.897 382.764 135.676 388 139.361Z" fill="#05BFDB"/>
<path opacity="0.2" d="M379.65 147.882L386.229 163.644L380.893 166.373C380.893 166.373 378.565 161.841 376.573 156.048L379.65 147.882Z" fill="black"/>
<path d="M338.89 174.033C338.947 182.843 339.48 193.802 340.793 207.404H383.018C383.535 201.203 380.945 171.967 387.23 142.697C387.697 140.52 386.241 138.4 384.041 138.058C381.35 137.64 377.67 137.16 374.069 136.986C368.685 136.728 360.881 136.556 356.126 136.986C353.54 137.221 351.009 137.634 348.927 138.039C345.324 138.74 342.459 141.431 341.506 144.975C340.595 148.363 339.664 153.571 339.195 161.429C338.979 165.051 338.861 169.219 338.89 174.033Z" fill="#05BFDB"/>
<path opacity="0.2" d="M352.214 157.46C349.424 159.51 344.084 160.45 339.224 160.87C339.304 159.58 339.404 158.36 339.514 157.21C340.823 156.52 342.084 155.89 343.274 155.31L352.214 157.46Z" fill="black"/>
<g opacity="0.2">
<path d="M345.695 389.905L345.735 400.063H353.632L353.592 389.905H345.695Z" fill="black"/>
<path d="M403.215 383.434L395.613 384.827L398.426 394.098L406.029 392.704L403.215 383.434Z" fill="black"/>
</g>
<path d="M367.986 108.222C369.142 115.994 370.209 120.47 367.213 125.366C362.706 132.73 352.606 131.588 349.178 124.404C346.093 117.938 344.72 106.314 351.495 101.393C358.169 96.545 366.829 100.45 367.986 108.222Z" fill="#7F3E3B"/>
<path d="M351.838 113.896C348.913 112.611 349.191 108 350.08 106.056C346.691 107.223 341.791 107.889 340.908 104.445C340.025 101.001 343.025 99.89 341.191 96.945C339.358 94.001 345.191 90.778 347.913 94.89C350.635 99.002 357.349 97.194 361.691 93.223C364.849 90.334 369.469 94.056 367.635 97.834C367.635 97.834 377.135 97.223 375.246 103.667C373.357 110.111 370.69 110.344 371.301 114.927C371.715 118.03 372.079 124.333 368.357 125.222C363.861 126.296 352.635 122.312 351.838 113.896Z" fill="#263238"/>
<path opacity="0.2" d="M351.784 122.31C350.924 122.93 350.034 123.59 349.124 124.29C349.144 124.33 349.154 124.36 349.174 124.4C350.114 126.37 351.564 127.89 353.264 128.91C353.829 128.361 354.145 126.514 355.211 126.542C358.378 126.625 364.512 125.301 365.527 121.724L351.784 122.31Z" fill="black"/>
<path d="M354.246 113.786C354.467 115.779 354.097 117.646 353.495 118.862C352.589 120.691 351.173 119.525 350.618 117.275C350.119 115.249 349.988 111.856 351.286 110.859C352.563 109.875 353.993 111.507 354.246 113.786Z" fill="#7F3E3B"/>
<path d="M355.771 207.404C355.771 207.404 362.4 267.724 366.445 290.323C370.875 315.07 393.815 392.748 393.815 392.748L407.955 389.737C407.955 389.737 392.165 317.068 390.038 292.567C387.73 265.975 383.013 207.405 383.013 207.405L355.771 207.404Z" fill="#05BFDB"/>
<path opacity="0.3" d="M355.771 207.404C355.771 207.404 362.4 267.724 366.445 290.323C370.875 315.07 393.815 392.748 393.815 392.748L407.955 389.737C407.955 389.737 392.165 317.068 390.038 292.567C387.844 267.287 387.84 267.34 383.013 207.405L355.771 207.404Z" fill="black"/>
<path d="M390.648 387.976C390.588 387.989 393.054 393.139 393.054 393.139L408.963 389.751L407.826 384.928L390.648 387.976Z" fill="#263238"/>
<path opacity="0.2" d="M360.602 228.896C370.881 230.927 368.294 269.552 366.28 289.418C363.835 275.375 360.506 248.354 358.259 229.175C358.961 228.832 359.739 228.724 360.602 228.896Z" fill="black"/>
<path d="M340.795 207.404C340.795 207.404 337.43 266.419 337.359 290.489C337.285 315.525 342.865 397.502 342.865 397.502H356.236C356.236 397.502 359.835 316.988 361.38 292.4C363.064 265.594 368.547 207.404 368.547 207.404H340.795Z" fill="#05BFDB"/>
<path opacity="0.3" d="M340.795 207.404C340.795 207.404 337.43 266.419 337.359 290.489C337.285 315.525 342.865 397.502 342.865 397.502H356.236C356.236 397.502 359.835 316.988 361.38 292.4C363.064 265.594 368.547 207.404 368.547 207.404H340.795Z" fill="black"/>
<path d="M340.497 392.176C340.435 392.176 341.037 397.727 341.037 397.727H357.302L357.933 392.773L340.497 392.176Z" fill="#263238"/>
<path d="M357.519 151.739C355.923 151.895 354.568 151.976 353.104 152.019C351.667 152.066 350.233 152.085 348.796 152.08C345.924 152.048 343.041 151.903 340.144 151.578C337.246 151.267 334.332 150.798 331.4 150.077C328.467 149.372 325.513 148.39 322.578 146.946L322.245 146.782C319.66 145.51 318.595 142.383 319.867 139.798C320.005 139.517 320.184 139.231 320.363 138.987C321.729 137.151 323.054 135.871 324.409 134.66C325.759 133.465 327.11 132.39 328.471 131.368C331.187 129.317 333.969 127.506 336.76 125.746C339.566 124.01 342.398 122.362 345.269 120.794C348.163 119.25 351.026 117.733 354.028 116.339C355.52 115.646 357.291 116.294 357.984 117.786C358.583 119.076 358.18 120.575 357.095 121.405L357.061 121.43C354.546 123.356 351.959 125.271 349.451 127.231C346.924 129.173 344.41 131.116 341.956 133.097C339.492 135.058 337.094 137.08 334.829 139.111C333.697 140.127 332.614 141.163 331.64 142.196C330.68 143.217 329.768 144.276 329.282 145.079L327.066 137.12C329.102 137.912 331.4 138.48 333.789 138.912C336.185 139.327 338.675 139.598 341.2 139.774C343.727 139.934 346.291 140.018 348.863 140.019C350.149 140.027 351.438 140.013 352.723 139.975C353.981 139.928 355.346 139.883 356.464 139.821L356.601 139.813C359.899 139.628 362.723 142.151 362.909 145.449C363.091 148.662 360.69 151.425 357.519 151.739Z" fill="#7F3E3B"/>
<path d="M363.118 114.722L358.096 115.831C358.096 115.831 351.407 115 349.876 120.042L353.839 123.425L359.957 124.392C360.927 124.545 361.921 124.384 362.793 123.932L364.355 123.122C365.073 122.75 365.552 122.038 365.627 121.233L365.997 117.264C366.146 115.66 364.691 114.375 363.118 114.722Z" fill="#7F3E3B"/>
<path d="M353.358 157.583C344.947 159.916 335.358 157 335.358 157L338.886 138.167C338.886 138.167 347.242 137.435 352.459 137.324C365.888 137.04 368.521 153.377 353.358 157.583Z" fill="#05BFDB"/>
</svg>
