<svg width="13" height="12" viewBox="0 0 13 12" fill="none" xmlns="http://www.w3.org/2000/svg">
<g clip-path="url(#clip0_20_199)">
<path d="M11.6639 9.77064L8.81237 6.91912C9.35035 6.08464 9.5607 5.08067 9.40294 4.10042C9.24518 3.12017 8.73045 2.2329 7.95781 1.60935C7.18518 0.985802 6.20922 0.670039 5.21776 0.722825C4.2263 0.775612 3.28939 1.19322 2.58733 1.89528C1.88526 2.59734 1.46766 3.53425 1.41487 4.52571C1.36209 5.51717 1.67785 6.49313 2.3014 7.26577C2.92494 8.03841 3.81222 8.55313 4.79247 8.71089C5.77272 8.86866 6.77669 8.65831 7.61117 8.12032L10.4627 10.9718C10.5416 11.0506 10.6352 11.113 10.7382 11.1556C10.8412 11.1982 10.9516 11.2201 11.063 11.22C11.1745 11.2199 11.2848 11.1979 11.3878 11.1551C11.4907 11.1124 11.5842 11.0498 11.663 10.971C11.7418 10.8921 11.8042 10.7985 11.8468 10.6955C11.8894 10.5925 11.9112 10.4821 11.9111 10.3706C11.9111 10.2592 11.889 10.1488 11.8463 10.0459C11.8036 9.94292 11.741 9.8494 11.6621 9.77064H11.6639ZM2.96318 7.21496C2.47641 6.72644 2.14531 6.10464 2.01168 5.42808C1.87805 4.75152 1.94789 4.05053 2.21237 3.41363C2.47685 2.77672 2.92413 2.23247 3.49771 1.84959C4.07129 1.4667 4.74546 1.26236 5.4351 1.26236C6.12473 1.26236 6.7989 1.4667 7.37248 1.84959C7.94607 2.23247 8.39334 2.77672 8.65782 3.41363C8.9223 4.05053 8.99214 4.75152 8.85851 5.42808C8.72488 6.10464 8.39378 6.72644 7.90701 7.21496C7.58257 7.5399 7.19726 7.79769 6.7731 7.97357C6.34894 8.14945 5.89427 8.23998 5.4351 8.23998C4.97592 8.23998 4.52125 8.14945 4.09709 7.97357C3.67294 7.79769 3.28762 7.5399 2.96318 7.21496Z" fill="black"/>
</g>
<defs>
<clipPath id="clip0_20_199">
<rect width="11.4061" height="11.4061" fill="white" transform="translate(0.956421 0.264374)"/>
</clipPath>
</defs>
</svg>
